<svg width="163" height="35" viewBox="0 0 163 35" fill="none" xmlns="http://www.w3.org/2000/svg">
<path d="M0.52 33.028H5.092V1.852H0.52V0.879999H11.464V12.004C11.824 10.06 12.436 8.188 13.3 6.388C14.164 4.564 15.352 3.076 16.864 1.924C18.376 0.747998 20.296 0.159998 22.624 0.159998C25.072 0.159998 26.968 0.639998 28.312 1.6C29.68 2.536 30.628 3.82 31.156 5.452C31.708 7.084 31.984 8.944 31.984 11.032V11.32C32.368 9.472 32.98 7.696 33.82 5.992C34.66 4.288 35.812 2.896 37.276 1.816C38.74 0.711998 40.612 0.159998 42.892 0.159998C45.34 0.159998 47.26 0.639998 48.652 1.6C50.044 2.536 51.028 3.82 51.604 5.452C52.204 7.084 52.504 8.944 52.504 11.032V33.028H57.04V34H41.56V33.028H46.096V11.824C46.096 9.808 46 8.02 45.808 6.46C45.64 4.876 45.256 3.64 44.656 2.752C44.056 1.864 43.108 1.42 41.812 1.42C39.892 1.42 38.296 1.972 37.024 3.076C35.776 4.18 34.78 5.596 34.036 7.324C33.292 9.028 32.764 10.816 32.452 12.688C32.14 14.536 31.984 16.216 31.984 17.728V33.028H36.556V34H21.076V33.028H25.612V11.824C25.612 9.808 25.54 8.02 25.396 6.46C25.252 4.876 24.892 3.64 24.316 2.752C23.74 1.864 22.804 1.42 21.508 1.42C19.636 1.42 18.052 1.972 16.756 3.076C15.46 4.18 14.428 5.596 13.66 7.324C12.892 9.028 12.328 10.816 11.968 12.688C11.632 14.536 11.464 16.216 11.464 17.728V33.028H16V34H0.52V33.028ZM88.4191 24.28C87.4831 27.28 85.8271 29.776 83.4511 31.768C81.0751 33.736 77.9071 34.72 73.9471 34.72C70.8751 34.72 68.0911 34.036 65.5951 32.668C63.0991 31.276 61.1191 29.296 59.6551 26.728C58.1911 24.136 57.4591 21.04 57.4591 17.44C57.4591 13.84 58.1551 10.756 59.5471 8.188C60.9631 5.596 62.8831 3.616 65.3071 2.248C67.7311 0.855998 70.4911 0.159998 73.5871 0.159998C77.1151 0.159998 79.9351 0.867998 82.0471 2.284C84.1591 3.676 85.6831 5.512 86.6191 7.792C87.5791 10.048 88.0591 12.484 88.0591 15.1H64.9831C64.9351 15.844 64.9111 16.624 64.9111 17.44C64.9111 20.176 65.1751 22.78 65.7031 25.252C66.2311 27.724 67.1671 29.74 68.5111 31.3C69.8791 32.86 71.8351 33.64 74.3791 33.64C77.7871 33.64 80.5711 32.752 82.7311 30.976C84.8911 29.176 86.4271 26.944 87.3391 24.28H88.4191ZM73.5871 1.132C71.5951 1.132 69.9991 1.732 68.7991 2.932C67.5991 4.132 66.7111 5.728 66.1351 7.72C65.5591 9.688 65.1871 11.824 65.0191 14.128H80.4271C80.4511 12.856 80.3911 11.476 80.2471 9.988C80.1031 8.5 79.8031 7.084 79.3471 5.74C78.8911 4.396 78.2071 3.292 77.2951 2.428C76.3831 1.564 75.1471 1.132 73.5871 1.132ZM88.4725 33.028H93.0445V1.852H88.4725V0.879999H99.4165V11.824C99.8005 9.904 100.449 8.056 101.361 6.28C102.296 4.504 103.569 3.04 105.177 1.888C106.809 0.735998 108.885 0.159998 111.405 0.159998C114.213 0.159998 116.325 0.639998 117.74 1.6C119.181 2.536 120.141 3.82 120.621 5.452C121.125 7.084 121.377 8.944 121.377 11.032V33.028H125.949V34H110.432V33.028H115.005V12.004C115.005 9.988 114.909 8.188 114.717 6.604C114.549 4.996 114.153 3.736 113.529 2.824C112.905 1.888 111.933 1.42 110.613 1.42C108.453 1.42 106.641 1.972 105.177 3.076C103.737 4.18 102.597 5.596 101.756 7.324C100.916 9.028 100.317 10.828 99.9565 12.724C99.5965 14.596 99.4165 16.312 99.4165 17.872V33.028H103.952V34H88.4725V33.028ZM157.515 33.028H162.087V34H151.035V23.128C150.651 25.048 150.015 26.896 149.127 28.672C148.239 30.424 146.991 31.876 145.383 33.028C143.775 34.156 141.687 34.72 139.119 34.72C136.335 34.72 134.223 34.252 132.783 33.316C131.343 32.356 130.359 31.06 129.831 29.428C129.327 27.796 129.075 25.936 129.075 23.848V1.852H124.503V0.879999H135.555V22.876C135.555 24.892 135.639 26.704 135.807 28.312C135.999 29.896 136.407 31.156 137.031 32.092C137.655 33.004 138.627 33.46 139.947 33.46C142.107 33.46 143.907 32.908 145.347 31.804C146.787 30.7 147.915 29.296 148.731 27.592C149.571 25.864 150.159 24.064 150.495 22.192C150.855 20.296 151.035 18.568 151.035 17.008V1.852H145.959V0.879999H157.515V33.028Z" fill="#0039E0" fill-opacity="0.1"/>
</svg>
