<svg width="354" height="115" viewBox="0 0 354 115" fill="none" xmlns="http://www.w3.org/2000/svg">
<path d="M23.264 56H0.908V55.028H7.388V2.972H0.908V2H21.788C27.236 2 31.592 3.056 34.856 5.168C38.144 7.256 39.788 10.64 39.788 15.32C39.788 19.352 38.624 22.4 36.296 24.464C33.992 26.504 30.656 27.764 26.288 28.244C29.216 28.46 31.856 29.024 34.208 29.936C36.584 30.848 38.468 32.204 39.86 34.004C41.252 35.78 41.948 38.072 41.948 40.88C41.948 46.28 40.28 50.156 36.944 52.508C33.608 54.836 29.048 56 23.264 56ZM21.788 2.972H14.264V27.776H21.788C23.612 27.776 25.352 27.392 27.008 26.624C28.664 25.856 30.008 24.62 31.04 22.916C32.096 21.188 32.624 18.896 32.624 16.04C32.624 13.184 32.096 10.796 31.04 8.876C30.008 6.932 28.664 5.468 27.008 4.484C25.352 3.476 23.612 2.972 21.788 2.972ZM22.508 28.748H14.264V55.028H22.508C24.572 55.028 26.48 54.452 28.232 53.3C29.984 52.124 31.388 50.48 32.444 48.368C33.5 46.232 34.028 43.736 34.028 40.88C34.028 38.024 33.5 35.708 32.444 33.932C31.388 32.156 29.984 30.848 28.232 30.008C26.48 29.168 24.572 28.748 22.508 28.748ZM48.4269 52.4C48.4269 51.2 48.8469 50.18 49.6869 49.34C50.5509 48.476 51.5709 48.044 52.7469 48.044C53.9469 48.044 54.9669 48.476 55.8069 49.34C56.6469 50.18 57.0669 51.2 57.0669 52.4C57.0669 53.576 56.6469 54.596 55.8069 55.46C54.9669 56.3 53.9469 56.72 52.7469 56.72C51.5709 56.72 50.5509 56.3 49.6869 55.46C48.8469 54.596 48.4269 53.576 48.4269 52.4ZM61.7986 55.028H69.7186V2.972H61.7986V2H85.5586C91.0066 2 95.3626 3.104 98.6266 5.312C101.915 7.496 103.559 10.928 103.559 15.608C103.559 19.856 102.275 23 99.7066 25.04C97.1626 27.08 93.4906 28.268 88.6906 28.604C91.7386 28.796 94.1506 29.432 95.9266 30.512C97.7266 31.568 99.0706 32.9 99.9586 34.508C100.847 36.092 101.435 37.82 101.723 39.692C102.011 41.54 102.167 43.376 102.191 45.2C102.215 47.024 102.263 48.692 102.335 50.204C102.407 51.692 102.671 52.892 103.127 53.804C103.583 54.716 104.411 55.172 105.611 55.172C106.355 55.172 107.039 55.1 107.663 54.956C108.287 54.788 108.851 54.584 109.355 54.344L109.679 55.208C109.103 55.544 108.251 55.82 107.123 56.036C105.995 56.252 104.687 56.36 103.199 56.36C100.823 56.36 99.0346 55.868 97.8346 54.884C96.6346 53.9 95.8186 52.604 95.3866 50.996C94.9546 49.364 94.7026 47.576 94.6306 45.632C94.5826 43.688 94.5226 41.744 94.4506 39.8C94.3786 37.856 94.1026 36.08 93.6226 34.472C93.1426 32.84 92.2546 31.532 90.9586 30.548C89.6626 29.564 87.7426 29.072 85.1986 29.072H76.5586V55.028H84.5146V56H61.7986V55.028ZM85.5586 2.972H76.5586V28.1H85.5586C89.0146 28.1 91.6786 27.008 93.5506 24.824C95.4466 22.616 96.3946 19.544 96.3946 15.608C96.3946 11.696 95.4466 8.612 93.5506 6.356C91.6786 4.1 89.0146 2.972 85.5586 2.972ZM114.099 52.4C114.099 51.2 114.519 50.18 115.359 49.34C116.223 48.476 117.243 48.044 118.419 48.044C119.619 48.044 120.639 48.476 121.479 49.34C122.319 50.18 122.739 51.2 122.739 52.4C122.739 53.576 122.319 54.596 121.479 55.46C120.639 56.3 119.619 56.72 118.419 56.72C117.243 56.72 116.223 56.3 115.359 55.46C114.519 54.596 114.099 53.576 114.099 52.4ZM127.471 55.028H134.203L153.175 0.919997H154.147L172.903 55.028H178.339V56H157.459V55.028H165.019L159.835 38.9H140.935L135.319 55.028H143.311V56H127.471V55.028ZM150.727 10.784L141.295 37.928H159.511L150.727 10.784ZM7.256 113.352H12.536V78.648H7.736C5.864 78.648 4.44 79.072 3.464 79.92C2.488 80.768 1.824 81.952 1.472 83.472C1.12 84.992 0.944 86.768 0.944 88.8H0.272V78H29.384V88.8H28.712C28.712 86.768 28.536 84.992 28.184 83.472C27.832 81.952 27.16 80.768 26.168 79.92C25.192 79.072 23.768 78.648 21.896 78.648H17.12V113.352H22.376V114H7.256V113.352ZM47.9559 114.48C45.5239 114.48 43.3559 114.008 41.4519 113.064C39.5479 112.104 37.9399 110.776 36.6279 109.08C35.3159 107.384 34.3159 105.424 33.6279 103.2C32.9399 100.96 32.5959 98.56 32.5959 96C32.5959 93.44 32.9559 91.048 33.6759 88.824C34.4119 86.584 35.4519 84.616 36.7959 82.92C38.1559 81.224 39.7799 79.904 41.6679 78.96C43.5559 78 45.6519 77.52 47.9559 77.52C50.2759 77.52 52.3799 78 54.2679 78.96C56.1559 79.904 57.7719 81.224 59.1159 82.92C60.4599 84.616 61.4919 86.584 62.2119 88.824C62.9479 91.048 63.3159 93.44 63.3159 96C63.3159 98.56 62.9719 100.96 62.2839 103.2C61.5959 105.424 60.5959 107.384 59.2839 109.08C57.9719 110.776 56.3639 112.104 54.4599 113.064C52.5719 114.008 50.4039 114.48 47.9559 114.48ZM47.9559 78.12C45.9879 78.12 44.3639 78.64 43.0839 79.68C41.8039 80.704 40.8039 82.08 40.0839 83.808C39.3639 85.52 38.8519 87.44 38.5479 89.568C38.2599 91.68 38.1159 93.824 38.1159 96C38.1159 98.176 38.2359 100.328 38.4759 102.456C38.7319 104.568 39.2039 106.488 39.8919 108.216C40.5959 109.928 41.5959 111.304 42.8919 112.344C44.1879 113.368 45.8759 113.88 47.9559 113.88C50.0519 113.88 51.7479 113.368 53.0439 112.344C54.3399 111.304 55.3319 109.928 56.0199 108.216C56.7079 106.488 57.1719 104.568 57.4119 102.456C57.6679 100.328 57.7959 98.176 57.7959 96C57.7959 93.824 57.6439 91.68 57.3399 89.568C57.0519 87.44 56.5479 85.52 55.8279 83.808C55.1079 82.08 54.1079 80.704 52.8279 79.68C51.5479 78.64 49.9239 78.12 47.9559 78.12ZM73.9591 113.352H79.2391V78.648H74.4391C72.5671 78.648 71.1431 79.072 70.1671 79.92C69.1911 80.768 68.5271 81.952 68.1751 83.472C67.8231 84.992 67.6471 86.768 67.6471 88.8H66.9751V78H96.0871V88.8H95.4151C95.4151 86.768 95.2391 84.992 94.8871 83.472C94.5351 81.952 93.8631 80.768 92.8711 79.92C91.8951 79.072 90.4711 78.648 88.5991 78.648H83.8231V113.352H89.0791V114H73.9591V113.352ZM94.3033 113.352H98.7913L111.439 77.28H112.087L124.591 113.352H128.215V114H114.295V113.352H119.335L115.879 102.6H103.279L99.5353 113.352H104.863V114H94.3033V113.352ZM109.807 83.856L103.519 101.952H115.663L109.807 83.856ZM131.241 113.352H135.729L148.377 77.28H149.025L161.529 113.352H165.153V114H151.233V113.352H156.273L152.817 102.6H140.217L136.473 113.352H141.801V114H131.241V113.352ZM146.745 83.856L140.457 101.952H152.601L146.745 83.856ZM193.414 114H167.71V113.352H172.03V78.648H167.71V78H180.91V78.648H176.614V113.352H184.03C186.542 113.352 188.422 112.928 189.67 112.08C190.918 111.232 191.742 110.048 192.142 108.528C192.558 107.008 192.766 105.232 192.766 103.2H193.414V114ZM223.02 114H208.116V113.352H212.436V78.648H208.116V78H222.036C225.668 78 228.572 78.704 230.748 80.112C232.94 81.504 234.036 83.76 234.036 86.88C234.036 89.568 233.26 91.6 231.708 92.976C230.172 94.336 227.948 95.176 225.036 95.496C226.988 95.64 228.748 96.016 230.316 96.624C231.9 97.232 233.156 98.136 234.084 99.336C235.012 100.52 235.476 102.048 235.476 103.92C235.476 107.52 234.364 110.104 232.14 111.672C229.916 113.224 226.876 114 223.02 114ZM222.036 78.648H217.02V95.184H222.036C223.252 95.184 224.412 94.928 225.516 94.416C226.62 93.904 227.516 93.08 228.204 91.944C228.908 90.792 229.26 89.264 229.26 87.36C229.26 85.456 228.908 83.864 228.204 82.584C227.516 81.288 226.62 80.312 225.516 79.656C224.412 78.984 223.252 78.648 222.036 78.648ZM222.516 95.832H217.02V113.352H222.516C223.892 113.352 225.164 112.968 226.332 112.2C227.5 111.416 228.436 110.32 229.14 108.912C229.844 107.488 230.196 105.824 230.196 103.92C230.196 102.016 229.844 100.472 229.14 99.288C228.436 98.104 227.5 97.232 226.332 96.672C225.164 96.112 223.892 95.832 222.516 95.832ZM255.659 114.48C253.227 114.48 251.059 114.008 249.155 113.064C247.251 112.104 245.643 110.776 244.331 109.08C243.019 107.384 242.019 105.424 241.331 103.2C240.643 100.96 240.299 98.56 240.299 96C240.299 93.44 240.659 91.048 241.379 88.824C242.115 86.584 243.155 84.616 244.499 82.92C245.859 81.224 247.483 79.904 249.371 78.96C251.259 78 253.355 77.52 255.659 77.52C257.979 77.52 260.083 78 261.971 78.96C263.859 79.904 265.475 81.224 266.819 82.92C268.163 84.616 269.195 86.584 269.915 88.824C270.651 91.048 271.019 93.44 271.019 96C271.019 98.56 270.675 100.96 269.987 103.2C269.299 105.424 268.299 107.384 266.987 109.08C265.675 110.776 264.067 112.104 262.163 113.064C260.275 114.008 258.107 114.48 255.659 114.48ZM255.659 78.12C253.691 78.12 252.067 78.64 250.787 79.68C249.507 80.704 248.507 82.08 247.787 83.808C247.067 85.52 246.555 87.44 246.251 89.568C245.963 91.68 245.819 93.824 245.819 96C245.819 98.176 245.939 100.328 246.179 102.456C246.435 104.568 246.907 106.488 247.595 108.216C248.299 109.928 249.299 111.304 250.595 112.344C251.891 113.368 253.579 113.88 255.659 113.88C257.755 113.88 259.451 113.368 260.747 112.344C262.043 111.304 263.035 109.928 263.723 108.216C264.411 106.488 264.875 104.568 265.115 102.456C265.371 100.328 265.499 98.176 265.499 96C265.499 93.824 265.347 91.68 265.043 89.568C264.755 87.44 264.251 85.52 263.531 83.808C262.811 82.08 261.811 80.704 260.531 79.68C259.251 78.64 257.627 78.12 255.659 78.12ZM273.129 78H286.833V78.648H282.009V102.48C282.009 104.592 282.225 106.512 282.657 108.24C283.105 109.968 283.929 111.344 285.129 112.368C286.345 113.392 288.105 113.904 290.409 113.904C293.465 113.904 295.777 113.032 297.345 111.288C298.913 109.544 299.697 106.768 299.697 102.96V78.648H295.257V78H304.953V78.648H300.345V102.96C300.345 106.912 299.473 109.864 297.729 111.816C296.001 113.752 293.241 114.72 289.449 114.72C285.289 114.72 282.249 113.8 280.329 111.96C278.409 110.104 277.449 107.104 277.449 102.96V78.648H273.129V78ZM342.122 78.648H338.114L334.058 90.72L339.17 107.256L349.274 78.648H344.546V78H353.978V78.648H350.042L337.37 114.48H336.65L331.034 96.408L324.458 114.48H323.738L312.626 78.648H308.162V78H342.122V78.648ZM326.33 107.256L330.698 95.28L325.538 78.648H317.426L326.33 107.256ZM330.338 78.648L333.698 89.568L337.346 78.648H330.338Z" fill="white"/>
</svg>
