<svg width="178" height="75" viewBox="0 0 178 75" fill="none" xmlns="http://www.w3.org/2000/svg">
<path d="M16.176 37H1.272V36.352H5.592V1.648H1.272V0.999997H15.192C18.824 0.999997 21.728 1.704 23.904 3.112C26.096 4.504 27.192 6.76 27.192 9.88C27.192 12.568 26.416 14.6 24.864 15.976C23.328 17.336 21.104 18.176 18.192 18.496C20.144 18.64 21.904 19.016 23.472 19.624C25.056 20.232 26.312 21.136 27.24 22.336C28.168 23.52 28.632 25.048 28.632 26.92C28.632 30.52 27.52 33.104 25.296 34.672C23.072 36.224 20.032 37 16.176 37ZM15.192 1.648H10.176V18.184H15.192C16.408 18.184 17.568 17.928 18.672 17.416C19.776 16.904 20.672 16.08 21.36 14.944C22.064 13.792 22.416 12.264 22.416 10.36C22.416 8.456 22.064 6.864 21.36 5.584C20.672 4.288 19.776 3.312 18.672 2.656C17.568 1.984 16.408 1.648 15.192 1.648ZM15.672 18.832H10.176V36.352H15.672C17.048 36.352 18.32 35.968 19.488 35.2C20.656 34.416 21.592 33.32 22.296 31.912C23 30.488 23.352 28.824 23.352 26.92C23.352 25.016 23 23.472 22.296 22.288C21.592 21.104 20.656 20.232 19.488 19.672C18.32 19.112 17.048 18.832 15.672 18.832ZM32.9513 34.6C32.9513 33.8 33.2313 33.12 33.7913 32.56C34.3673 31.984 35.0473 31.696 35.8313 31.696C36.6313 31.696 37.3113 31.984 37.8713 32.56C38.4313 33.12 38.7113 33.8 38.7113 34.6C38.7113 35.384 38.4313 36.064 37.8713 36.64C37.3113 37.2 36.6313 37.48 35.8313 37.48C35.0473 37.48 34.3673 37.2 33.7913 36.64C33.2313 36.064 32.9513 35.384 32.9513 34.6ZM41.8658 36.352H47.1458V1.648H41.8658V0.999997H57.7058C61.3378 0.999997 64.2418 1.736 66.4178 3.208C68.6098 4.664 69.7058 6.952 69.7058 10.072C69.7058 12.904 68.8498 15 67.1378 16.36C65.4418 17.72 62.9938 18.512 59.7938 18.736C61.8258 18.864 63.4338 19.288 64.6178 20.008C65.8178 20.712 66.7138 21.6 67.3058 22.672C67.8978 23.728 68.2898 24.88 68.4818 26.128C68.6738 27.36 68.7778 28.584 68.7938 29.8C68.8098 31.016 68.8418 32.128 68.8898 33.136C68.9378 34.128 69.1138 34.928 69.4178 35.536C69.7218 36.144 70.2738 36.448 71.0738 36.448C71.5698 36.448 72.0258 36.4 72.4418 36.304C72.8578 36.192 73.2338 36.056 73.5698 35.896L73.7858 36.472C73.4018 36.696 72.8338 36.88 72.0818 37.024C71.3298 37.168 70.4578 37.24 69.4658 37.24C67.8818 37.24 66.6898 36.912 65.8898 36.256C65.0898 35.6 64.5458 34.736 64.2578 33.664C63.9698 32.576 63.8018 31.384 63.7538 30.088C63.7218 28.792 63.6818 27.496 63.6338 26.2C63.5858 24.904 63.4018 23.72 63.0818 22.648C62.7618 21.56 62.1698 20.688 61.3058 20.032C60.4418 19.376 59.1618 19.048 57.4658 19.048H51.7058V36.352H57.0098V37H41.8658V36.352ZM57.7058 1.648H51.7058V18.4H57.7058C60.0098 18.4 61.7858 17.672 63.0338 16.216C64.2978 14.744 64.9298 12.696 64.9298 10.072C64.9298 7.464 64.2978 5.408 63.0338 3.904C61.7858 2.4 60.0098 1.648 57.7058 1.648ZM76.7325 34.6C76.7325 33.8 77.0125 33.12 77.5725 32.56C78.1485 31.984 78.8285 31.696 79.6125 31.696C80.4125 31.696 81.0925 31.984 81.6525 32.56C82.2125 33.12 82.4925 33.8 82.4925 34.6C82.4925 35.384 82.2125 36.064 81.6525 36.64C81.0925 37.2 80.4125 37.48 79.6125 37.48C78.8285 37.48 78.1485 37.2 77.5725 36.64C77.0125 36.064 76.7325 35.384 76.7325 34.6ZM85.647 36.352H90.135L102.783 0.279998H103.431L115.935 36.352H119.559V37H105.639V36.352H110.679L107.223 25.6H94.623L90.879 36.352H96.207V37H85.647V36.352ZM101.151 6.856L94.863 24.952H107.007L101.151 6.856ZM4.128 73.676H6.768V56.324H4.368C3.432 56.324 2.72 56.536 2.232 56.96C1.744 57.384 1.412 57.976 1.236 58.736C1.06 59.496 0.972 60.384 0.972 61.4H0.636V56H15.192V61.4H14.856C14.856 60.384 14.768 59.496 14.592 58.736C14.416 57.976 14.08 57.384 13.584 56.96C13.096 56.536 12.384 56.324 11.448 56.324H9.06V73.676H11.688V74H4.128V73.676ZM24.4779 74.24C23.2619 74.24 22.1779 74.004 21.2259 73.532C20.2739 73.052 19.4699 72.388 18.8139 71.54C18.1579 70.692 17.6579 69.712 17.3139 68.6C16.9699 67.48 16.7979 66.28 16.7979 65C16.7979 63.72 16.9779 62.524 17.3379 61.412C17.7059 60.292 18.2259 59.308 18.8979 58.46C19.5779 57.612 20.3899 56.952 21.3339 56.48C22.2779 56 23.3259 55.76 24.4779 55.76C25.6379 55.76 26.6899 56 27.6339 56.48C28.5779 56.952 29.3859 57.612 30.0579 58.46C30.7299 59.308 31.2459 60.292 31.6059 61.412C31.9739 62.524 32.1579 63.72 32.1579 65C32.1579 66.28 31.9859 67.48 31.6419 68.6C31.2979 69.712 30.7979 70.692 30.1419 71.54C29.4859 72.388 28.6819 73.052 27.7299 73.532C26.7859 74.004 25.7019 74.24 24.4779 74.24ZM24.4779 56.06C23.4939 56.06 22.6819 56.32 22.0419 56.84C21.4019 57.352 20.9019 58.04 20.5419 58.904C20.1819 59.76 19.9259 60.72 19.7739 61.784C19.6299 62.84 19.5579 63.912 19.5579 65C19.5579 66.088 19.6179 67.164 19.7379 68.228C19.8659 69.284 20.1019 70.244 20.4459 71.108C20.7979 71.964 21.2979 72.652 21.9459 73.172C22.5939 73.684 23.4379 73.94 24.4779 73.94C25.5259 73.94 26.3739 73.684 27.0219 73.172C27.6699 72.652 28.1659 71.964 28.5099 71.108C28.8539 70.244 29.0859 69.284 29.2059 68.228C29.3339 67.164 29.3979 66.088 29.3979 65C29.3979 63.912 29.3219 62.84 29.1699 61.784C29.0259 60.72 28.7739 59.76 28.4139 58.904C28.0539 58.04 27.5539 57.352 26.9139 56.84C26.2739 56.32 25.4619 56.06 24.4779 56.06ZM37.4796 73.676H40.1196V56.324H37.7196C36.7836 56.324 36.0716 56.536 35.5836 56.96C35.0956 57.384 34.7636 57.976 34.5876 58.736C34.4116 59.496 34.3236 60.384 34.3236 61.4H33.9876V56H48.5436V61.4H48.2076C48.2076 60.384 48.1196 59.496 47.9436 58.736C47.7676 57.976 47.4316 57.384 46.9356 56.96C46.4476 56.536 45.7356 56.324 44.7996 56.324H42.4116V73.676H45.0396V74H37.4796V73.676ZM47.6516 73.676H49.8956L56.2196 55.64H56.5436L62.7956 73.676H64.6076V74H57.6476V73.676H60.1676L58.4396 68.3H52.1396L50.2676 73.676H52.9316V74H47.6516V73.676ZM55.4036 58.928L52.2596 67.976H58.3316L55.4036 58.928ZM66.1204 73.676H68.3644L74.6884 55.64H75.0124L81.2644 73.676H83.0764V74H76.1164V73.676H78.6364L76.9084 68.3H70.6084L68.7364 73.676H71.4004V74H66.1204V73.676ZM73.8724 58.928L70.7284 67.976H76.8004L73.8724 58.928ZM97.2068 74H84.3548V73.676H86.5148V56.324H84.3548V56H90.9548V56.324H88.8068V73.676H92.5148C93.7708 73.676 94.7108 73.464 95.3348 73.04C95.9588 72.616 96.3708 72.024 96.5708 71.264C96.7788 70.504 96.8828 69.616 96.8828 68.6H97.2068V74ZM112.01 74H104.558V73.676H106.718V56.324H104.558V56H111.518C113.334 56 114.786 56.352 115.874 57.056C116.97 57.752 117.518 58.88 117.518 60.44C117.518 61.784 117.13 62.8 116.354 63.488C115.586 64.168 114.474 64.588 113.018 64.748C113.994 64.82 114.874 65.008 115.658 65.312C116.45 65.616 117.078 66.068 117.542 66.668C118.006 67.26 118.238 68.024 118.238 68.96C118.238 70.76 117.682 72.052 116.57 72.836C115.458 73.612 113.938 74 112.01 74ZM111.518 56.324H109.01V64.592H111.518C112.126 64.592 112.706 64.464 113.258 64.208C113.81 63.952 114.258 63.54 114.602 62.972C114.954 62.396 115.13 61.632 115.13 60.68C115.13 59.728 114.954 58.932 114.602 58.292C114.258 57.644 113.81 57.156 113.258 56.828C112.706 56.492 112.126 56.324 111.518 56.324ZM111.758 64.916H109.01V73.676H111.758C112.446 73.676 113.082 73.484 113.666 73.1C114.25 72.708 114.718 72.16 115.07 71.456C115.422 70.744 115.598 69.912 115.598 68.96C115.598 68.008 115.422 67.236 115.07 66.644C114.718 66.052 114.25 65.616 113.666 65.336C113.082 65.056 112.446 64.916 111.758 64.916ZM128.33 74.24C127.114 74.24 126.03 74.004 125.078 73.532C124.126 73.052 123.322 72.388 122.666 71.54C122.01 70.692 121.51 69.712 121.166 68.6C120.822 67.48 120.65 66.28 120.65 65C120.65 63.72 120.83 62.524 121.19 61.412C121.558 60.292 122.078 59.308 122.75 58.46C123.43 57.612 124.242 56.952 125.186 56.48C126.13 56 127.178 55.76 128.33 55.76C129.49 55.76 130.542 56 131.486 56.48C132.43 56.952 133.238 57.612 133.91 58.46C134.582 59.308 135.098 60.292 135.458 61.412C135.826 62.524 136.01 63.72 136.01 65C136.01 66.28 135.838 67.48 135.494 68.6C135.15 69.712 134.65 70.692 133.994 71.54C133.338 72.388 132.534 73.052 131.582 73.532C130.638 74.004 129.554 74.24 128.33 74.24ZM128.33 56.06C127.346 56.06 126.534 56.32 125.894 56.84C125.254 57.352 124.754 58.04 124.394 58.904C124.034 59.76 123.778 60.72 123.626 61.784C123.482 62.84 123.41 63.912 123.41 65C123.41 66.088 123.47 67.164 123.59 68.228C123.718 69.284 123.954 70.244 124.298 71.108C124.65 71.964 125.15 72.652 125.798 73.172C126.446 73.684 127.29 73.94 128.33 73.94C129.378 73.94 130.226 73.684 130.874 73.172C131.522 72.652 132.018 71.964 132.362 71.108C132.706 70.244 132.938 69.284 133.058 68.228C133.186 67.164 133.25 66.088 133.25 65C133.25 63.912 133.174 62.84 133.022 61.784C132.878 60.72 132.626 59.76 132.266 58.904C131.906 58.04 131.406 57.352 130.766 56.84C130.126 56.32 129.314 56.06 128.33 56.06ZM137.065 56H143.917V56.324H141.505V68.24C141.505 69.296 141.613 70.256 141.829 71.12C142.053 71.984 142.465 72.672 143.065 73.184C143.673 73.696 144.553 73.952 145.705 73.952C147.233 73.952 148.389 73.516 149.173 72.644C149.957 71.772 150.349 70.384 150.349 68.48V56.324H148.129V56H152.977V56.324H150.673V68.48C150.673 70.456 150.237 71.932 149.365 72.908C148.501 73.876 147.121 74.36 145.225 74.36C143.145 74.36 141.625 73.9 140.665 72.98C139.705 72.052 139.225 70.552 139.225 68.48V56.324H137.065V56ZM171.561 56.324H169.557L167.529 62.36L170.085 70.628L175.137 56.324H172.773V56H177.489V56.324H175.521L169.185 74.24H168.825L166.017 65.204L162.729 74.24H162.369L156.813 56.324H154.581V56H171.561V56.324ZM163.665 70.628L165.849 64.64L163.269 56.324H159.213L163.665 70.628ZM165.669 56.324L167.349 61.784L169.173 56.324H165.669Z" fill="black"/>
</svg>
